<svg xmlns="http://www.w3.org/2000/svg" width="326" height="346" fill="#fff" xmlns:v="https://vecta.io/nano"><path d="M124.852 325.519a8.82 8.82 0 0 0 3.746-.827c-1.133.415-2.28.641-3.36.641-4.24 0-7.866-2.6-9.186-6.24 1.293 3.747 4.746 6.426 8.8 6.426zm-9.187-7.799c-.12-.573-.173-1.147-.186-1.76 0 .6.053 1.187.186 1.76zm93.32-251.345v-.015zm0 .065c0 .053 0 .093.013.147a1.26 1.26 0 0 1-.013-.212v.065z"/><path d="M208.998 66.813c0-.027 0-.053.014-.08-.014-.053-.014-.093-.014-.147-.013.08-.013.147 0 .227zM39.211 124.2a.89.89 0 0 0 .013.188c-.013-.175 0-.348.027-.521-.012-.054-.012-.094-.012-.134-.028.16-.028.307-.028.467zm36.522 73.588c-.748.988-1.96 1.511-3.199 1.511h-9.581c-1.237 0-2.449-.523-3.197-1.51-2.288-3.021-6.907-5.946-10.78-5.946-5.389 0-9.763 4.189-9.763 9.374s4.373 9.376 9.763 9.376c3.891 0 8.541-2.889 10.825-5.934.748-.995 1.967-1.522 3.212-1.522h9.465c1.243 0 2.461.527 3.208 1.522 2.28 3.045 6.92 5.934 10.827 5.934 5.388 0 9.763-4.189 9.763-9.376s-4.375-9.374-9.763-9.374c-3.873 0-8.492 2.925-10.78 5.945zm158.799-84.201c-1.279.961-2.508 2.346-3.547 3.893.027.027.039.068.067.093 1.013-1.52 2.24-2.866 3.48-3.813.986-.748 1.508-1.96 1.508-3.2v-.188c0 1.241-.535 2.455-1.508 3.215zm5.346-3.08c0 1.24.532 2.466 1.534 3.213 1.333 1 2.64 2.453 3.693 4.12.053.027.107.068.16.093-1.08-1.76-2.453-3.333-3.867-4.4-1.001-.733-1.52-1.96-1.52-3.213v.187zm-11.24-24.587c.52-4.88 4.48-8.68 9.32-8.68s8.814 3.813 9.32 8.707c-.413-4.973-4.412-8.88-9.32-8.88-4.894 0-8.893 3.893-9.32 8.853zm-13.719-30.521c-1.428 1.069-2.814 2.641-3.868 4.415 0 .015-.013.015-.013.027a2.06 2.06 0 0 1 .293-.187c1.04-1.6 2.307-3.013 3.602-4 .985-.745 1.505-1.96 1.505-3.2v-.267c0 1.253-.533 2.48-1.519 3.212zm5.359-3c0 1.241.534 2.468 1.534 3.215 1.226.907 2.413 2.2 3.413 3.693.04.027.08.04.12.065-1.04-1.572-2.293-2.959-3.572-3.919-.975-.76-1.495-1.975-1.495-3.213v.159zm7.467 13.934v-.107c0-.173 0-.347-.027-.52l.027.627z"/><path d="M214.332 20.093c-2.975.999-5.906 3.16-7.587 5.373-.747.987-1.96 1.507-3.2 1.507h-9.573c-1.24 0-2.454-.52-3.2-1.507-2.294-3.013-6.907-5.947-10.787-5.947-5.385 0-9.76 4.2-9.76 9.373 0 5.187 4.375 9.387 9.76 9.387 3.893 0 8.548-2.893 10.827-5.933.746-1 1.973-1.533 3.213-1.533h9.467c1.24 0 2.465.533 3.213 1.533 1.253 1.68 3.227 3.307 5.4 4.427.041.027.093.053.133.08l.015.013c.825 1.053 1.745 1.947 2.667 2.64.985.761 1.518 1.972 1.518 3.213v9.733c0 1.24-.52 2.455-1.505 3.2-1.295.987-2.561 2.4-3.601 4-.108.053-.202.12-.294.187-1.72 1.068-3.253 2.413-4.293 3.787-.747.987-1.96 1.52-3.2 1.52h-9.573c-1.24 0-2.454-.533-3.2-1.52-2.294-3.013-6.907-5.947-10.787-5.947-5.385 0-9.76 4.2-9.76 9.373 0 5.187 4.375 9.387 9.76 9.387 3.893 0 8.548-2.893 10.827-5.933.746-1 1.973-1.533 3.213-1.533h9.467c1.24 0 2.465.533 3.213 1.533 1.227 1.627 3.12 3.213 5.228 4.347.905 1.24 1.945 2.32 3 3.12.985.747 1.505 1.96 1.505 3.2v9.573c0 1.241-.52 2.453-1.505 3.2-3.013 2.293-5.948 6.908-5.948 10.785 0 5.388 4.187 9.761 9.372 9.761s9.388-4.373 9.388-9.761c0-3.892-2.893-8.544-5.933-10.824-1-.748-1.534-1.975-1.534-3.215v-9.467c0-1.239.534-2.467 1.534-3.213 1.212-.905 2.4-2.2 3.4-3.667.16-.093.32-.2.48-.293 1.72-1.067 3.253-2.413 4.28-3.773.733-1 1.96-1.52 3.186-1.52h9.587c1.24 0 2.453.52 3.187 1.52 1.198 1.56 3.053 3.133 5.08 4.24.961 1.388 2.105 2.6 3.266 3.493 1 .733 1.507 1.947 1.507 3.187v9.573c0 1.239-.507 2.453-1.507 3.213-3.013 2.293-5.946 6.906-5.946 10.786 0 5.387 4.185 9.76 9.373 9.76s9.373-4.373 9.373-9.76c0-3.906-2.866-8.546-5.92-10.84-1-.733-1.533-1.96-1.533-3.213v-9.467c0-1.241.533-2.453 1.533-3.213 1.014-.747 2-1.748 2.866-2.907 1.774-2.347 3.054-5.307 3.054-7.907 0-5.387-4.186-9.76-9.373-9.76-.16 0-.307 0-.48.04-.161-.04-.333-.04-.493-.04-2.4 0-5.08 1.093-7.307 2.64-1.427.96-2.64 2.12-3.52 3.28-.759 1.001-1.987 1.533-3.215 1.533h-9.465c-1.24 0-2.452-.532-3.213-1.533-1.107-1.467-2.787-2.933-4.667-4.015-.04-.025-.08-.039-.12-.065-1-1.493-2.187-2.787-3.413-3.693-1-.747-1.534-1.973-1.534-3.215v-9.465c0-1.24.534-2.467 1.534-3.2 3.04-2.293 5.933-6.92 5.933-10.827 0-5.4-4.2-9.773-9.388-9.773-1.439 0-2.812.333-4.025.96zm13.386 46.64c.014-.053.014-.093.014-.147.013.08.013.147 0 .227 0-.027 0-.053-.014-.08zm-18.72-.147a.52.52 0 0 0 .014.147c-.014.027-.014.053-.014.08-.013-.08-.013-.147 0-.227z"/><path d="M227.718 66.733c.014.027.014.053.014.08.013-.08.013-.147 0-.227 0 .053 0 .093-.014.147zm.027-.4v-.107c0-.173 0-.347-.027-.52l.027.627zM191.03 83.009c-1.717 1.641-2.822 3.912-2.99 6.459.277 3.985 2.842 7.327 6.368 8.527.11.036.202.091.313.111a9.92 9.92 0 0 0 3.488.627c2.123 0 4.448-.867 6.497-2.16 1.236-2.028 2.047-4.317 2.047-6.384 0-.24 0-.48-.036-.72-.352-5.056-4.392-9.043-9.339-9.043a9.06 9.06 0 0 0-6.348 2.584zM22.138 143.625c0 3.875 2.925 8.494 5.945 10.782.988.749 1.509 1.96 1.509 3.197v9.581c0 1.239-.521 2.451-1.509 3.199-3.02 2.288-5.945 6.907-5.945 10.779 0 5.389 4.189 9.764 9.375 9.764s9.375-4.375 9.375-9.764c0-3.891-2.887-8.542-5.931-10.826-.997-.745-1.524-1.966-1.524-3.212v-9.462c0-1.246.527-2.464 1.524-3.21 3.044-2.28 5.931-6.918 5.931-10.828 0-5.388-4.188-9.761-9.375-9.761s-9.375 4.373-9.375 9.761zm212.394-45.838c.986.747 1.508 1.96 1.508 3.201v-.188c0-1.241-.535-2.453-1.508-3.2-2.814-2.121-5.547-6.267-5.908-9.96.281 3.733 3.054 7.973 5.908 10.147zm6.866-.147c-1.001.76-1.52 1.973-1.52 3.215v.185c0-1.24.532-2.465 1.534-3.213 2.894-2.173 5.653-6.493 5.894-10.268-.334 3.733-3.054 7.961-5.908 10.081zm-32.413-31.265v-.015zm0 .065c0 .053 0 .093.013.147a1.26 1.26 0 0 1-.013-.212v.065z"/><path d="M208.998 66.813c0-.027 0-.053.014-.08-.014-.053-.014-.093-.014-.147-.013.08-.013.147 0 .227zm5.935-27.133c.985.747 1.505 1.96 1.505 3.2v-.16c0-1.241-.533-2.452-1.518-3.213-.922-.693-1.842-1.587-2.667-2.64l-.015-.013-.133-.08c.853 1.147 1.84 2.147 2.828 2.907zm12.785 27.053c.014.027.014.053.014.08.013-.08.013-.147 0-.227 0 .053 0 .093-.014.147zm-132.294.454c0 3.88 2.921 8.493 5.934 10.787.987.747 1.52 1.96 1.52 3.2v9.573c0 1.241-.533 2.453-1.52 3.2-1.413 1.08-2.8 2.667-3.88 4.44-1.547 1.027-2.895 2.266-3.855 3.52-.745.986-1.959 1.506-3.199 1.506h-9.573c-1.24 0-2.455-.52-3.199-1.506-1.188-1.56-2.988-3.094-5.001-4.214-.907-1.253-1.96-2.347-3.028-3.16-.999-.747-1.519-1.973-1.519-3.213v-9.467c0-1.24.52-2.465 1.519-3.213 3.041-2.28 5.935-6.92 5.935-10.827 0-5.387-4.187-9.76-9.373-9.76-.08 0-.173 0-.253.013-.093-.013-.173-.013-.267-.013-3.88 0-8.493 2.933-10.787 5.947-.747.988-1.96 1.507-3.2 1.507h-9.573c-1.24 0-2.453-.519-3.2-1.507-2.293-3.013-6.907-5.947-10.788-5.947-5.385 0-9.759 4.187-9.759 9.373 0 .561.053 1.107.16 1.64.48 3.588 3.12 7.56 5.853 9.613.987.747 1.507 1.96 1.507 3.2v9.587c0 1.24-.52 2.441-1.507 3.2-3.027 2.28-5.947 6.908-5.947 10.773 0 5.388 4.187 9.76 9.373 9.76s9.373-4.372 9.373-9.76c0-3.893-2.893-8.547-5.933-10.827-.999-.747-1.52-1.96-1.52-3.215v-9.465c0-1.24.521-2.453 1.52-3.2 1.4-1.04 2.76-2.587 3.825-4.333 1.56-1.001 2.935-2.253 3.881-3.533.747-.987 1.973-1.52 3.213-1.52h9.465c1.241 0 2.468.533 3.215 1.52 1.053 1.427 2.627 2.8 4.387 3.853l.013.012c1.013 1.56 2.253 2.908 3.52 3.868.987.747 1.507 1.96 1.507 3.2v9.574c0 1.24-.52 2.453-1.507 3.2-3.027 2.293-5.947 6.906-5.947 10.787 0 5.387 4.187 9.76 9.373 9.76a9.12 9.12 0 0 0 4.467-1.173c2.787-1.054 5.48-3.08 7.053-5.174.747-.986 1.96-1.52 3.2-1.52h9.467c1.253 0 2.467.534 3.213 1.52 2.28 3.054 6.92 5.934 10.827 5.934 5.386 0 9.76-4.187 9.76-9.374 0-.093 0-.2-.014-.293.014-.105.014-.2.014-.308 0-3.892-2.894-8.544-5.932-10.824-1.002-.748-1.522-1.975-1.522-3.215v-9.467c0-1.239.52-2.467 1.522-3.213 3.038-2.28 5.932-6.92 5.932-10.827 0-5.387-4.187-9.76-9.374-9.76s-9.374 4.373-9.374 9.76zM228.638 85.92l-.052.987a7.71 7.71 0 0 0 .038.733c.361 3.693 3.094 7.839 5.908 9.96.973.747 1.508 1.959 1.508 3.2v9.76c0 1.24-.522 2.452-1.508 3.2-1.24.947-2.467 2.293-3.48 3.813-1.454 2.159-2.466 4.694-2.466 6.974 0 5.146 3.826 9.373 8.704 9.72.388.053.775.08 1.174.08 3.893 0 8.534-2.879 10.826-5.934.748-.986 1.963-1.52 3.214-1.52h9.454c1.254 0 2.467.534 3.214 1.52 2.28 3.055 6.92 5.934 10.826 5.934.214 0 .427 0 .626-.027.201.027.414.027.613.027 3.895 0 8.535-2.879 10.828-5.934.747-.986 1.96-1.52 3.213-1.52h9.454c1.253 0 2.466.534 3.213 1.52 2.28 3.055 6.92 5.934 10.828 5.934 5.385 0 9.759-4.187 9.759-9.374s-4.374-9.373-9.759-9.373c-3.881 0-8.495 2.92-10.788 5.947-.747.986-1.96 1.506-3.187 1.506h-9.586c-1.24 0-2.454-.52-3.2-1.506-2.28-3.027-6.907-5.947-10.775-5.947-.199 0-.412 0-.613.027-.199-.027-.412-.027-.626-.027-3.88 0-8.494 2.92-10.786 5.947-.747.986-1.959 1.506-3.188 1.506h-9.586c-1.24 0-2.453-.52-3.2-1.506-.973-1.307-2.373-2.574-3.973-3.614-.053-.025-.107-.066-.16-.093-1.053-1.667-2.36-3.12-3.693-4.12-1.002-.747-1.534-1.973-1.534-3.213v-9.652c0-1.242.519-2.455 1.52-3.215 2.854-2.12 5.574-6.348 5.908-10.081.026-.185.026-.371.026-.559v-.065c0-.335-.026-.668-.054-.988-.506-4.893-4.481-8.707-9.32-8.707s-8.8 3.8-9.32 8.68zm39.682 78.507a8.6 8.6 0 0 0 .558 3.093c-.28-.92-.426-1.827-.426-2.707 0-3.933 2.24-7.333 5.466-8.853-3.306 1.48-5.598 4.72-5.598 8.467zm-46.68 86.133h-.015c-.187-.027-.387-.027-.573-.027-3.867 0-8.494 2.92-10.774 5.947-.745.988-1.958 1.507-3.2 1.507h-9.586c-1.24 0-2.454-.519-3.2-1.507-2.28-3.027-6.907-5.947-10.775-5.947-5.387 0-9.757 4.187-9.757 9.374a9.03 9.03 0 0 0 1.518 5.013l.014.013c.32.655.68 1.307 1.093 1.919 1.025 1.575 2.28 2.963 3.56 3.921.973.734 1.507 1.947 1.507 3.187v9.573c0 1.24-.534 2.454-1.507 3.214-1.187.893-2.321 2.121-3.293 3.533l-.012.013s-.015 0-.015.015c-1.987 1.105-3.76 2.597-4.919 4.157-.733 1.002-1.961 1.523-3.202 1.523h-9.466c-1.24 0-2.466-.521-3.213-1.523-2.28-3.038-6.933-5.93-10.827-5.93-5.386 0-9.758 4.185-9.758 9.372s4.372 9.373 9.758 9.373c3.88 0 8.494-2.92 10.787-5.947.747-.986 1.96-1.505 3.2-1.505h9.573c1.24 0 2.454.519 3.2 1.505 2.294 3.027 6.907 5.947 10.775 5.947.092 0 .185 0 .279-.012h.013c.013.012.013.012.027 0 .014.012.026.012.04 0h.026.055c.119.024.265.024.399.024 5.186 0 9.373-4.371 9.373-9.757 0-3.91-2.893-8.548-5.933-10.843-1-.732-1.52-1.96-1.52-3.211v-9.468c0-1.24.52-2.453 1.52-3.213 1.24-.933 2.493-2.281 3.52-3.827 1.6-1.026 3.025-2.306 4.013-3.626.747-.987 1.961-1.52 3.213-1.52h9.454c1.253 0 2.466.533 3.213 1.52 1.187 1.6 3.027 3.146 5.067 4.253.96 1.388 2.106 2.587 3.253 3.479.987.734 1.507 1.948 1.507 3.189v9.572c0 1.24-.52 2.452-1.507 3.213-3.012 2.294-5.947 6.907-5.947 10.774 0 1.185.199 2.306.574 3.346 1.306 3.747 4.748 6.427 8.801 6.427a8.75 8.75 0 0 0 3.905-.908h.014c3.053-.947 6.106-3.12 7.813-5.412.733-1 1.947-1.535 3.2-1.535h9.453c1.254 0 2.48.535 3.214 1.535 2.294 3.04 6.92 5.92 10.826 5.92 5.4 0 9.774-4.187 9.774-9.373s-4.374-9.374-9.774-9.374c-3.865 0-8.48 2.934-10.774 5.947-.758.987-1.959 1.505-3.186 1.505h-9.6c-1.053 0-2.08-.372-2.84-1.105a5.26 5.26 0 0 1-.358-.4c-1.068-1.412-2.655-2.787-4.428-3.88-.28-.173-.574-.333-.854-.495-.88-1.198-1.906-2.252-2.933-3.025-1-.732-1.533-1.959-1.533-3.213v-9.467c0-1.24.533-2.452 1.533-3.213 3.04-2.267 5.92-6.92 5.92-10.814 0-5.386-4.187-9.76-9.372-9.76-.121 0-.228 0-.333.027z"/><path d="M182.892 307.268c.026.024.026 0 .026 0h-.026zM112.785 44.625c-.747.988-1.96 1.508-3.201 1.508h-9.572c-1.239 0-2.454-.52-3.2-1.508-2.293-3.025-6.907-5.945-10.787-5.945-5.387 0-9.76 4.187-9.76 9.373 0 .107 0 .2.013.307-.013.107-.013.199-.013.307 0 3.867 2.933 8.493 5.947 10.773.987.748 1.507 1.959 1.507 3.2v9.587c0 1.227-.52 2.44-1.507 3.187-3.013 2.293-5.947 6.907-5.947 10.787 0 5.387 4.187 9.76 9.373 9.76s9.373-4.373 9.373-9.76c0-3.893-2.88-8.547-5.933-10.827-.987-.748-1.52-1.975-1.52-3.213v-9.467c0-1.24.533-2.453 1.52-3.2 1.453-1.08 2.855-2.68 3.92-4.48 1.547-1.013 2.907-2.253 3.855-3.52.745-1 1.972-1.52 3.212-1.52h9.467c1.241 0 2.466.52 3.213 1.52 1.08 1.44 2.68 2.853 4.495 3.92.012.027.025.067.05.093 1.03 1.573 2.282 2.973 3.563 3.933.999.76 1.505 1.959 1.505 3.185v9.588c0 1.253-.506 2.453-1.505 3.213-1.335.987-2.629 2.453-3.681 4.093-1.347 2.08-2.267 4.507-2.267 6.68 0 4.093 2.413 7.6 5.852 9.067h.015c1.093.44 2.28.693 3.506.693.134 0 .28 0 .414-.013h.026a1.98 1.98 0 0 0 .28.013c3.894 0 8.547-2.88 10.827-5.933.748-1 1.973-1.52 3.213-1.52h9.467c1.24 0 2.467.52 3.213 1.52 2.28 3.053 6.907 5.933 10.827 5.933 5.387 0 9.761-4.187 9.761-9.373s-4.374-9.372-9.761-9.372c-3.88 0-8.493 2.919-10.787 5.945-.746.987-1.96 1.507-3.2 1.507h-9.573c-1.24 0-2.453-.52-3.2-1.507-1.093-1.44-2.72-2.867-4.547-3.947V79.2c-1.026-1.547-2.253-2.893-3.506-3.84-1-.735-1.534-1.947-1.534-3.2v-9.467c0-1.24.534-2.467 1.534-3.2 3.04-2.28 5.92-6.92 5.92-10.827 0-2.307-.774-4.44-2.04-6.093h-.027a9.29 9.29 0 0 0-3.24-2.693c-.147-.08-.305-.147-.453-.213a9.79 9.79 0 0 0-4.32-.987c-3.88 0-8.494 2.92-10.787 5.945zm19.933-19.958l-.56.693c-.735.987-1.946 1.507-3.186 1.507h-9.587c-1.227 0-2.453-.52-3.2-1.507-2.293-3.027-6.907-5.947-10.788-5.947-5.385 0-9.759 4.187-9.759 9.373a9.01 9.01 0 0 0 1.813 5.427c1.773 2.4 4.666 3.947 7.946 3.947 3.895 0 8.548-2.893 10.841-5.933.733-1 1.96-1.52 3.213-1.52h9.467c1.227 0 2.454.52 3.214 1.52 1.08 1.493 2.759 2.933 4.639 4.013 1.04 1.573 2.294 2.973 3.561 3.933 1 .76 1.521 1.96 1.521 3.2v9.573c0 1.253-.521 2.452-1.521 3.213-1.32 1-2.614 2.453-3.667 4.093-1.347 2.08-2.267 4.507-2.267 6.68 0 4.093 2.414 7.6 5.854 9.067h.013a9.34 9.34 0 0 0 3.508.693c1.785 0 3.466-.507 4.892-1.44.733-.453 1.413-1.053 1.986-1.707 1.547-1.747 2.493-4.067 2.493-6.613 0-3.893-2.879-8.545-5.919-10.825-1-.748-1.534-1.961-1.534-3.215v-9.467c0-1.239.534-2.453 1.534-3.2 3.04-2.28 5.919-6.92 5.919-10.827a9.98 9.98 0 0 0-2.052-6.093h-.014c-1.107-1.453-2.6-2.56-4.333-3.16-.092-.027-.214-.067-.294-.107-1.093-.4-2.28-.627-3.506-.627-3.587 0-7.813 2.495-10.227 5.253zM59.44 143.936c0 3.875 2.925 8.493 5.945 10.781.987.748 1.511 1.96 1.511 3.199v9.579c0 1.238-.524 2.452-1.511 3.2-3.02 2.288-5.945 6.906-5.945 10.778 0 5.39 4.189 9.764 9.375 9.764s9.376-4.374 9.376-9.764c0-3.89-2.889-8.541-5.933-10.825-.996-.745-1.523-1.968-1.523-3.212v-9.463c0-1.245.527-2.464 1.523-3.209 3.044-2.28 5.933-6.919 5.933-10.828 0-5.388-4.189-9.761-9.376-9.761s-9.375 4.373-9.375 9.761zM39.211 85.6c0 3.893 2.893 8.547 5.932 10.827 1.001.747 1.521 1.973 1.521 3.213v9.467c0 1.24-.52 2.466-1.521 3.213-3.039 2.28-5.932 6.92-5.932 10.827 0 .173 0 .36.028.533v.053a.56.56 0 0 0 .012.134c-.027.173-.04.346-.027.521-.013.065-.013.132-.013.199 0 3.866 2.932 8.48 5.947 10.773.987.747 1.507 1.96 1.507 3.199v9.574c0 1.239-.52 2.454-1.507 3.2-3.015 2.294-5.947 6.907-5.947 10.787 0 5.387 4.187 9.76 9.373 9.76s9.373-4.373 9.373-9.76c0-3.893-2.88-8.547-5.933-10.828-.987-.744-1.52-1.972-1.52-3.212v-9.467c0-1.241.533-2.453 1.52-3.2 1.333-1 2.64-2.453 3.68-4.093l.013-.013c1.64-1.039 3.093-2.347 4.08-3.667.747-1 1.973-1.533 3.213-1.533h9.467c1.24 0 2.467.533 3.213 1.533 2.28 3.04 6.92 5.933 10.827 5.933 5.387 0 9.76-4.2 9.76-9.373 0-5.188-4.373-9.387-9.76-9.387-3.88 0-8.493 2.934-10.787 5.947-.747.987-1.96 1.52-3.2 1.52h-9.573c-1.24 0-2.455-.533-3.2-1.52-.867-1.147-2.067-2.28-3.44-3.24-1.12-2.067-2.707-3.945-4.307-5.16-.987-.747-1.507-1.96-1.507-3.2v-9.573c0-1.24.52-2.453 1.507-3.2 3.027-2.293 5.947-6.908 5.947-10.787 0-5.385-4.185-9.76-9.373-9.76s-9.373 4.375-9.373 9.76zm-31.01 68.589c-3.413 1.475-5.813 4.963-5.813 9.043 0 3.543 2.455 7.732 5.185 10.149.26.222.499.443.757.628.979.739 1.513 1.956 1.513 3.192v9.579c0 .923-.295 1.844-.868 2.564v.02a4.14 4.14 0 0 1-.645.628c-3.027 2.288-5.943 6.901-5.943 10.776 0 5.389 4.189 9.764 9.375 9.764.628 0 1.237-.056 1.828-.185 4.3-.887 7.548-4.836 7.548-9.579 0-3.912-2.899-8.544-5.943-10.832-.997-.739-1.513-1.957-1.513-3.211v-9.468c0-1.236.516-2.454 1.513-3.212 3.044-2.269 5.943-6.92 5.943-10.813 0-5.389-4.189-9.763-9.376-9.763-1.273 0-2.473.259-3.561.72zm13.331 67.078c0 2.24.973 4.733 2.373 6.866 1.04 1.574 2.293 2.959 3.56 3.92.987.747 1.52 1.947 1.52 3.187v9.587c0 1.253-.533 2.453-1.52 3.2-3.027 2.293-5.933 6.908-5.933 10.786 0 5.387 4.187 9.76 9.373 9.76 4.667 0 8.547-3.56 9.24-8.213.093-.493.133-1.013.133-1.547 0-3.893-2.907-8.545-5.947-10.84-1-.733-1.507-1.96-1.507-3.213v-9.468c0-1.225.507-2.452 1.507-3.185 3.04-2.294 5.947-6.919 5.947-10.84 0-4.294-2.68-7.974-6.4-9.24-.093-.039-.213-.08-.307-.107a8.84 8.84 0 0 0-2.667-.413c-5.187 0-9.373 4.373-9.373 9.76zm65.305-68.278h.019c.056-.018.092-.018.147-.018-.055 0-.109 0-.165.018zm66.601-142.962c0 3.867 2.92 8.48 5.934 10.773.986.748 1.52 1.96 1.52 3.2v9.573c0 1.24-.52 2.453-1.52 3.2-3.014 2.293-5.934 6.907-5.934 10.787 0 5.387 4.187 9.76 9.374 9.76s9.373-4.373 9.373-9.76c0-3.893-2.893-8.547-5.933-10.827-1-.747-1.52-1.973-1.52-3.213v-9.467c0-1.24.52-2.467 1.52-3.213 3.04-2.281 5.933-6.907 5.933-10.813 0-5.4-4.187-9.773-9.373-9.773s-9.374 4.373-9.374 9.773zm35.37 37.549a8.59 8.59 0 0 0 8.589 8.588 8.59 8.59 0 0 0 8.588-8.588 8.59 8.59 0 0 0-8.588-8.589 8.59 8.59 0 0 0-8.589 8.589zm40.566 0a8.59 8.59 0 0 0 8.588 8.588 8.59 8.59 0 0 0 8.589-8.588 8.59 8.59 0 0 0-8.589-8.589 8.59 8.59 0 0 0-8.588 8.589zm57.247 58.197a8.59 8.59 0 0 0 8.588 8.587 8.59 8.59 0 0 0 8.589-8.587 8.59 8.59 0 0 0-8.589-8.589 8.59 8.59 0 0 0-8.588 8.589zM.961 124.193a8.59 8.59 0 0 0 8.589 8.588 8.59 8.59 0 0 0 8.588-8.588 8.59 8.59 0 0 0-8.588-8.588 8.59 8.59 0 0 0-8.589 8.588zm82.664 107.234c-2.707 1.066-5.293 3.04-6.827 5.066-.76.987-1.973 1.52-3.215 1.52h-9.572c-1.239 0-2.453-.533-3.2-1.52-2.28-3.025-6.893-5.933-10.772-5.933-5.387 0-9.761 4.187-9.761 9.375 0 .092 0 .198.013.292v.013c-.013.12-.013.187-.013.293 0 3.88 2.907 8.494 5.933 10.787.987.747 1.52 1.948 1.52 3.187v9.586c0 1.254-.533 2.454-1.52 3.2l-.013.027c-3.027 2.28-5.92 6.88-5.92 10.76 0 5.387 4.187 9.76 9.373 9.76 4.72 0 8.613-3.639 9.267-8.36a9.75 9.75 0 0 0 .107-1.4c0-3.895-2.893-8.547-5.947-10.84-.987-.733-1.507-1.96-1.507-3.213v-9.467c0-1.227.52-2.453 1.507-3.188 1.425-1.092 2.855-2.692 3.933-4.479 1.547-1.026 2.893-2.28 3.841-3.533.759-1 1.972-1.507 3.212-1.507h9.467c1.253 0 2.467.507 3.213 1.507 1.12 1.48 2.8 2.933 4.667 4.039 1.027 1.574 2.293 2.961 3.56 3.921.973.747 1.52 1.948 1.52 3.187v9.586c0 1.254-.547 2.454-1.52 3.2-3.027 2.294-5.947 6.907-5.947 10.787 0 5.387 4.2 9.76 9.387 9.76 5.173 0 9.373-4.373 9.373-9.76 0-3.895-2.907-8.547-5.947-10.84-1-.733-1.52-1.96-1.52-3.213v-9.467c0-1.227.52-2.453 1.52-3.188 2.253-1.679 4.413-4.652 5.385-7.665.348-1.067.561-2.134.561-3.174 0-4.293-2.68-7.973-6.413-9.24a2.29 2.29 0 0 0-.293-.105c-1.08-.415-2.267-.628-3.507-.628-1.267 0-2.64.307-3.947.867zm14.56 26.92c0 .04 0 .093.013.133a9.92 9.92 0 0 1 2.08-5.907c-1.32 1.587-2.093 3.6-2.093 5.774zm17.8 22.868a10.88 10.88 0 0 1-.374-1.508c.067.52.2 1.026.374 1.508zm171.213-78.855c0 4.68-3.158 8.6-7.4 9.533 3.226-.666 5.854-2.866 7.014-5.773.441-1.053.666-2.2.666-3.372 0-1.601-.414-3.108-1.146-4.428.546 1.347.866 2.733.866 4.04zm-186.92 101.733c.174.08.347.147.534.199l-.667-.412.133.213z"/><path d="M141.531 249.84c-2.706 1.067-5.293 3.04-6.826 5.08-.748.973-1.974 1.507-3.214 1.507h-9.573c-1.24 0-2.453-.534-3.187-1.507-2.293-3.027-6.906-5.947-10.786-5.947-.054 0-.107 0-.16.014h-.04-.027c-2.227.04-4.28.813-5.907 2.066-.226.187-.453.374-.666.572l-.014.015c-.106.092-.213.2-.306.307-.014.013-.04.026-.054.053-.013.013-.026.027-.04.04-.013.027-.04.04-.053.067-.147.146-.267.306-.4.466-1.253 1.614-2.04 3.667-2.08 5.907v.053c-.013.067-.013.134-.013.2 0 3.894 2.878 8.547 5.92 10.814 1 .76 1.533 1.972 1.533 3.226v9.454c0 1.254-.533 2.481-1.533 3.213-1.494 1.107-2.934 2.787-4 4.655-1.507.985-2.84 2.185-3.76 3.452-.747.988-1.96 1.52-3.213 1.52h-9.467c-1.24 0-2.453-.532-3.213-1.52-1.093-1.507-2.775-2.922-4.627-4.014-1.04-1.586-2.293-2.945-3.585-3.933-1.001-.748-1.508-1.947-1.508-3.2v-9.585c0-1.242.507-2.442 1.508-3.19 3.012-2.292 5.945-6.905 5.945-10.785 0-5.387-4.187-9.76-9.373-9.76s-9.373 4.373-9.373 9.76c0 3.893 2.867 8.547 5.92 10.827 1 .746 1.533 1.973 1.533 3.226v9.44c0 1-.333 1.975-.987 2.72-.16.187-.347.347-.547.494-1.44 1.066-2.827 2.666-3.88 4.453-1.72 1.053-3.24 2.399-4.28 3.787-.76.974-1.975 1.505-3.213 1.505h-9.573c-1.24 0-2.453-.531-3.2-1.505-2.28-3.027-6.892-5.947-10.773-5.947-5.387 0-9.761 4.187-9.761 9.373s4.375 9.374 9.761 9.374c3.893 0 8.547-2.895 10.813-5.946.76-.988 1.972-1.509 3.213-1.509h9.467c1.253 0 2.48.521 3.212 1.509 2.295 3.051 6.921 5.946 10.828 5.946.773 0 1.52-.094 2.24-.254 3.745-.24 8.028-3.053 10.2-5.906.747-1 1.96-1.522 3.2-1.522h9.573c1.24 0 2.453.522 3.212 1.522.923 1.24 2.256 2.44 3.748 3.453.213.147.438.268.666.412a3.51 3.51 0 0 1-.533-.199c1.067 1.774 2.453 3.319 3.853 4.4.974.747 1.507 1.947 1.507 3.187v9.573c0 1.266-.533 2.467-1.507 3.212-3.026 2.295-5.946 6.91-5.946 10.788 0 5.387 4.186 9.76 9.373 9.76s9.373-4.373 9.373-9.76c0-3.893-2.893-8.545-5.933-10.84-1-.733-1.52-1.96-1.52-3.213v-9.468c0-1.225.52-2.452 1.52-3.185.241-.187.453-.374.693-.572 2.774-2.415 5.24-6.642 5.24-10.268 0-.12 0-.242-.013-.36 0-.134 0-.24-.013-.36v-.014c.013-.106.013-.228.013-.333v-.015c.013-.118.013-.238.013-.358 0-3.868-2.933-8.48-5.933-10.774-1-.761-1.52-1.96-1.52-3.213v-9.572c0-1.241.52-2.441 1.52-3.201 1.293-.974 2.573-2.4 3.613-4l.32-.2c1.547-1.014 2.894-2.267 3.827-3.534.76-.986 1.987-1.506 3.213-1.506h9.467c1.253 0 2.48.52 3.215 1.506 1.132 1.48 2.812 2.947 4.666 4.054 1.971 1.133 4.172 1.893 6.172 1.893 4.147 0 7.694-2.493 9.092-6 .442-1.053.668-2.187.668-3.373 0-3.894-2.453-7.214-5.96-8.64-.093-.027-.213-.067-.293-.107-1.093-.4-2.28-.627-3.507-.627-1.28 0-2.64.307-3.96.867z"/><path d="M105.545 249.213c-1.387.307-2.653.947-3.733 1.84 1.626-1.253 3.68-2.026 5.906-2.066-.053-.014-.106-.014-.16-.014-.693 0-1.36.067-2.013.24zm11.36 47.76v.014c.013.12.013.226.013.36.013-.12.013-.24.013-.36l-.013-.347-.013.333zm-56.699-74.797a8.61 8.61 0 0 0 8.601 8.6c4.244 0 7.768-3.101 8.451-7.16a7.25 7.25 0 0 0 .129-1.44c0-3.968-2.676-7.289-6.329-8.268a8.26 8.26 0 0 0-2.251-.313c-4.744 0-8.601 3.838-8.601 8.581zm214.072-66.389c1.134-.454 2.374-.72 3.666-.72-.039-.014-.079-.014-.119-.014a8.75 8.75 0 0 0-3.547.734zM268.438 41a9.86 9.86 0 0 0-3 6.468c.014.239.04.479.08.72 0 0-.013.012 0 .025a7.61 7.61 0 0 0-.092 1.24c0 3.868 2.918 8.493 5.946 10.773.985.747 1.506 1.96 1.506 3.2v9.587c0 1.227-.521 2.44-1.506 3.187-3.028 2.293-5.946 6.908-5.946 10.787 0 5.385 4.186 9.76 9.372 9.76s9.374-4.375 9.374-9.76c0-3.893-2.88-8.547-5.934-10.827-1.001-.747-1.52-1.973-1.52-3.213V63.48c0-1.24.534-2.453 1.52-3.2 3.054-2.28 5.934-6.92 5.934-10.827a6.99 6.99 0 0 0-.04-.747c.026-.173.026-.347.026-.519 0-.241 0-.481-.04-.72-.346-5.055-4.386-9.041-9.333-9.041-2.48 0-4.693.973-6.347 2.573zm25.814 94.373c-3.654.414-7.747 3.107-9.854 5.894-.733 1.001-1.96 1.506-3.186 1.506h-9.587c-1.228 0-2.453-.505-3.213-1.506-2.28-3.027-6.895-5.947-10.772-5.947-.042 0-.07 0-.107.013h-.028c-.013-.013-.013-.013-.027 0h-.026c-5.294.08-9.574 4.227-9.574 9.36 0 2.399.947 4.6 2.494 6.24 1.133 2.08 2.706 3.947 4.305 5.159.988.748 1.508 1.961 1.508 3.201v9.574c0 1.241-.52 2.453-1.508 3.2-3.025 2.293-5.945 6.906-5.945 10.786 0 5.387 4.186 9.76 9.373 9.76s9.375-4.373 9.375-9.76c0-3.893-2.894-8.546-5.935-10.826-1-.747-1.52-1.974-1.52-3.214v-9.466c0-1.239.52-2.467 1.52-3.214 1.693-1.278 3.36-3.293 4.48-5.493.015-.013.015-.013.015-.04h.012l.012-.013c.948-.774 1.761-1.627 2.414-2.454.734-.986 1.947-1.52 3.2-1.52h9.468c1.239 0 2.466.534 3.211 1.52 2.283 3.04 6.921 5.934 10.815 5.934.748 0 1.468-.067 2.16-.214v-.026c4.36-.92 7.612-4.667 7.612-9.134 0-5.186-4.372-9.373-9.772-9.373-.294 0-.6.013-.92.053z"/><path d="M266.04 150.6c0 .011 0 .016-.002.021.004-.006.007-.014.014-.021h-.012zm-.015.04c.008-.008.012-.012.013-.019-.002.006-.006.012-.013.019zm-35.841 13.48c0 3.88 2.921 8.493 5.934 10.788.987.745 1.52 1.959 1.52 3.185v9.587c0 1.24-.533 2.453-1.52 3.2-3.013 2.28-5.934 6.907-5.934 10.775a9.36 9.36 0 0 0 .294 2.385c.388 3.653 3.092 7.76 5.879 9.868.988.745 1.508 1.959 1.508 3.199v9.586c0 1.242-.52 2.44-1.508 3.2-1.185.907-2.359 2.16-3.345 3.586-1.147 1.228-1.947 2.748-2.267 4.429-.027.052-.04.105-.027.159a4.79 4.79 0 0 0-.12.866c-.12.535-.173 1.067-.186 1.574v.16c.04 1.801.693 3.76 1.693 5.546.025.054.067.107.095.16 1.118 1.974 2.625 3.734 4.172 4.907.986.733 1.493 1.96 1.493 3.188v9.585c0 1.227-.507 2.454-1.493 3.214-3.027 2.28-5.96 6.893-5.96 10.773 0 4.24 2.6 7.867 6.253 9.187.959.373 2.013.573 3.119.573 1.041 0 2.041-.16 2.961-.492 3.24-.841 6.587-3.161 8.413-5.6.734-.988 1.959-1.535 3.214-1.535h9.44c1.266 0 2.48.547 3.212 1.535 2.294 3.052 6.921 5.932 10.841 5.932 5.387 0 9.76-4.2 9.76-9.373 0-5.187-4.373-9.387-9.76-9.387-3.88 0-8.493 2.933-10.787 5.947-.746 1.001-1.948 1.52-3.186 1.52h-9.6c-1.055 0-2.08-.374-2.84-1.107-.134-.132-.24-.265-.347-.413-1.067-1.4-2.653-2.787-4.427-3.88-1.001-1.494-2.214-2.814-3.44-3.747-1-.733-1.533-1.945-1.533-3.2v-9.467c0-1.241.533-2.466 1.533-3.213 1.402-1.052 2.814-2.627 3.879-4.412 1.721-1.068 3.268-2.415 4.295-3.801.746-.999 1.96-1.52 3.2-1.52h9.226c1.24 0 2.454.521 3.214 1.52 2.266 3.04 6.92 5.933 10.813 5.933 5.387 0 9.76-4.187 9.76-9.373 0-3.16-1.627-5.947-4.107-7.64-.786-.547-1.666-.974-2.613-1.267a3.38 3.38 0 0 0-.333-.107 14.51 14.51 0 0 0-.827-.185h-.039c-.268-.055-.548-.096-.828-.121-.105-.014-.201-.027-.308-.027-.158-.027-.332-.027-.493-.027-.079 0-.157 0-.239.014-.013-.014-.026-.014-.026-.014-.027 0-.054 0-.094.014a2.02 2.02 0 0 0-.292.026c-.054 0-.106.014-.161.014h-.028c-1.412.16-2.893.64-4.305 1.373-.014 0-.014 0-.04.013-2.227 1.107-4.252 2.774-5.547 4.494-.76.986-1.973 1.52-3.213 1.52h-9.467c-1.239 0-2.453-.534-3.213-1.52-1.095-1.48-2.747-2.92-4.614-3.987-.013 0-.013-.027-.04-.027a15.17 15.17 0 0 0-2.026-1c-.507-.533-1.014-.986-1.534-1.373-1-.747-1.533-1.96-1.533-3.213v-9.467c0-1.24.533-2.453 1.533-3.2 1.347-1 2.654-2.48 3.72-4.132.066-.055.134-.096.2-.135 1.547-1.013 2.894-2.266 3.84-3.52.747-1 1.974-1.506 3.2-1.506h9.467c1.267 0 2.481.506 3.213 1.506 1.134 1.482 2.812 2.935 4.667 4.04 1.387.8 2.867 1.387 4.307 1.68.332.08.665.134 1.013.174.28.026.561.053.853.053h.107c.053 0 .119 0 .173-.012.214.012.427 0 .642-.028.144-.013.305-.027.452-.068a3.03 3.03 0 0 0 .706-.119c4.242-.933 7.4-4.853 7.4-9.533 0-1.307-.32-2.693-.866-4.04-1.08-2.707-3.04-5.267-5.067-6.787-.987-.746-1.52-1.974-1.52-3.213v-9.465c0-1.242.533-2.468 1.52-3.215 1.387-1.027 2.733-2.547 3.787-4.253 1.546-1.015 2.906-2.254 3.853-3.52.747-.987 1.973-1.52 3.212-1.52h9.468c1.24 0 2.453.533 3.2 1.52 2.28 3.053 6.92 5.933 10.827 5.933 5.386 0 9.773-4.187 9.773-9.373s-4.387-9.374-9.773-9.374c-3.867 0-8.495 2.935-10.774 5.947-.746.987-1.96 1.507-3.198 1.507h-9.588c-1.227 0-2.44-.52-3.187-1.507-2.293-3.012-6.907-5.947-10.788-5.947-.037 0-.092 0-.133.014-1.292 0-2.532.266-3.666.72-.12.053-.24.106-.36.173-3.226 1.52-5.466 4.92-5.466 8.853 0 .88.146 1.787.426 2.707.895 3.133 3.174 6.308 5.52 8.08.987.747 1.507 1.959 1.507 3.2v9.572c0 1.241-.52 2.455-1.507 3.203-1.413 1.065-2.786 2.64-3.866 4.398-1.44.974-2.707 2.147-3.6 3.334-.748.986-1.974 1.521-3.2 1.521h-9.586c-1.241 0-2.456-.535-3.189-1.521-.919-1.227-2.239-2.427-3.72-3.427-1.119-2.025-2.652-3.853-4.239-5.053-1-.747-1.52-1.96-1.52-3.214v-9.453c0-1.253.52-2.467 1.52-3.213 3.04-2.28 5.934-6.92 5.934-10.827 0-5.388-4.188-9.76-9.374-9.76s-9.374 4.372-9.374 9.76z"/><path d="M232.105 246.213c-1-1.786-1.653-3.745-1.693-5.546 0 2.065.612 3.973 1.693 5.546zm-39.8 31.863c0 3.875 2.917 8.489 5.944 10.777.977.739 1.513 1.956 1.513 3.192v9.579c0 1.237-.536 2.453-1.513 3.211-.904.682-1.81 1.586-2.623 2.621-1.899 2.38-3.321 5.444-3.321 8.156 0 5.389 4.19 9.763 9.376 9.763s9.374-4.374 9.374-9.763c0-3.912-2.897-8.544-5.941-10.832a2.17 2.17 0 0 1-.48-.443c-.683-.738-1.035-1.736-1.035-2.769v-9.467c0-1.237.518-2.453 1.515-3.21 3.044-2.271 5.941-6.92 5.941-10.815 0-5.391-4.188-9.763-9.374-9.763s-9.376 4.372-9.376 9.763zm-77.254-1.236c-.04.32-.053.64-.053.96l.013.293v.014a2.45 2.45 0 0 0 .054.546 3.21 3.21 0 0 0 .066.587 10.88 10.88 0 0 0 .374 1.508l.078.225c1.002 2.96 3.162 5.88 5.362 7.56.986.76 1.506 1.96 1.506 3.2v9.574c0 1.253-.52 2.453-1.506 3.214-1.44 1.079-2.867 2.704-3.947 4.559-.987 1.627-1.667 3.4-1.895 5.107l-.078.893a1.1 1.1 0 0 0-.027.215v.198a9.45 9.45 0 0 0 .187 1.76l.24.947c.04.147.08.28.146.427 1.32 3.64 4.947 6.24 9.187 6.24 1.08 0 2.227-.227 3.36-.642 2.92-.998 5.773-3.12 7.427-5.305.746-.987 1.96-1.507 3.198-1.507h9.575c1.24 0 2.453.52 3.2 1.507 2.293 3.025 6.907 5.947 10.787 5.947 5.386 0 9.76-4.186 9.76-9.374s-4.374-9.373-9.76-9.373c-3.92 0-8.547 2.893-10.828 5.933-.746.999-1.972 1.52-3.212 1.52h-9.467c-1.24 0-2.467-.521-3.213-1.52-1.027-1.388-2.56-2.733-4.292-3.8-1.002-1.52-2.228-2.853-3.468-3.786-1-.748-1.534-1.96-1.534-3.214v-9.465c0-1.241.534-2.456 1.534-3.201 1.133-.854 2.253-2.028 3.2-3.387v-.012c.24-.135.48-.296.706-.441 1.56-1.012 2.907-2.267 3.84-3.52.76-1.002 1.974-1.52 3.214-1.52h9.466c1.254 0 2.48.518 3.214 1.52 1.12 1.48 2.8 2.932 4.666 4.04 1.974 1.146 4.174 1.906 6.174 1.906 3.813 0 7.12-2.105 8.706-5.186.04-.054.067-.12.095-.174.092-.16.172-.333.239-.506.026-.042.053-.08.053-.134.441-1.052.667-2.2.667-3.373 0-.975-.147-1.92-.44-2.8a4.97 4.97 0 0 0-.2-.561c-.08-.186-.174-.387-.267-.572-.999-2.119-2.813-3.799-5.055-4.708-.092-.039-.212-.079-.305-.119-1.08-.399-2.267-.627-3.493-.627-1.28 0-2.64.322-3.96.866-2.707 1.081-5.294 3.054-6.827 5.081-.76.973-1.973 1.52-3.213 1.52h-9.574c-1.24 0-2.453-.547-3.186-1.52-1.372-1.8-3.56-3.572-5.934-4.693-.013-.014-.026-.027-.04-.027-1.48-1.04-3.28-1.64-5.2-1.64-4.893 0-8.894 3.88-9.32 8.84zm115.401-37.08v.027c-.04.24-.04.48-.04.72.013-.507.066-1.039.186-1.574a4.79 4.79 0 0 1 .12-.866 8.68 8.68 0 0 0-.266 1.693zm47.413-9.467c-.015 0-.015 0-.027.014.082-.014.16-.014.239-.014h-.212zm.881.038a1.42 1.42 0 0 0-.176-.011c.058 0 .115.007.176.011zm.132.016c.28.025.56.066.828.121h.039l.827.185a3.38 3.38 0 0 1 .333.107c.947.293 1.827.72 2.613 1.267.015-.054.04-.094.067-.147-.093-.067-.187-.107-.265-.147-1.322-.813-2.856-1.306-4.495-1.4-.028 0-.053-.001-.079-.002l.132.016zm7.751-47.46c0 3.893 2.896 8.544 5.943 10.832.996.737 1.513 1.957 1.513 3.21v9.45c0 1.254-.517 2.473-1.513 3.21-.167.13-.334.259-.5.407-1.255 1.033-2.454 2.472-3.414 4.043-1.716 1.069-3.229 2.416-4.262 3.781-.739.996-1.956 1.513-3.194 1.513h-9.577c-1.237 0-2.455-.517-3.211-1.513-2.29-3.025-6.902-5.941-10.777-5.941-5.389 0-9.764 4.189-9.764 9.374s4.375 9.375 9.764 9.375c3.892 0 8.544-2.896 10.831-5.943.74-.977 1.957-1.513 3.212-1.513h9.468c1.236 0 2.453.536 3.212 1.513.46.628 1.032 1.238 1.677 1.828v.018c2.473 2.27 6.035 4.097 9.136 4.097.775 0 1.513-.092 2.233-.257a9.71 9.71 0 0 0 4.946-2.77c1.864-1.789 3.026-4.336 3.026-7.178 0-2.232-.96-4.688-2.342-6.828-1.035-1.587-2.308-2.972-3.6-3.95-.978-.756-1.512-1.956-1.512-3.192v-9.597c0-1.236.534-2.436 1.512-3.193 3.025-2.288 5.942-6.902 5.942-10.776 0-4.69-3.174-8.602-7.401-9.542a8.72 8.72 0 0 0-1.973-.222c-5.187 0-9.375 4.374-9.375 9.764zm-10.071 47.54l-.72.133-.72.187-.253.081c-.68.225-1.333.532-1.933.892 1.412-.733 2.893-1.213 4.305-1.373-.225.013-.452.04-.679.08z"/><path d="M278.746 230.331a1.42 1.42 0 0 0-.176-.011c.058 0 .115.007.176.011zm.132.016c-.012-.014-.04-.014-.053-.014-.028 0-.053-.001-.079-.002l.132.016zm4.64 1.68c.015-.054.04-.094.067-.147-.094-.067-.187-.107-.266-.147-.788-.413-1.601-.746-2.414-.973a9.49 9.49 0 0 1 2.613 1.267zm-110.973 46.24c0 1.173-.225 2.321-.667 3.373.466-1.027.707-2.175.707-3.373 0-.987-.159-1.92-.48-2.8.293.88.44 1.825.44 2.8zm111.851-22.54c-.739.978-1.956 1.513-3.194 1.513h-9.577c-1.071 0-2.123-.407-2.88-1.125l-.331-.388c-2.29-3.026-6.902-5.942-10.777-5.942-5.389 0-9.764 4.188-9.764 9.375s4.375 9.373 9.764 9.373c.203 0 .424 0 .627-.036 3.745-.277 8.045-3.025 10.204-5.905.74-.996 1.957-1.512 3.212-1.512h9.468c1.236 0 2.453.516 3.212 1.512 2.269 3.045 6.918 5.941 10.813 5.941 5.389 0 9.763-4.189 9.763-9.373s-4.374-9.375-9.763-9.375c-3.875 0-8.491 2.916-10.777 5.942zm-7.838-25.3l-.72.133-.72.187-.253.081c-3.04.945-6.053 3.145-7.787 5.412-.733.973-1.948 1.507-3.186 1.507h.24c1.24 0 2.453-.534 3.213-1.52 1.295-1.72 3.32-3.387 5.547-4.494.026-.013.026-.013.04-.013 1.412-.733 2.893-1.213 4.305-1.373-.225.013-.452.04-.679.08zm1.254-.134s.013 0 .026.014c.082-.014.16-.014.239-.014h-.265z"/></svg>